<svg xmlns="http://www.w3.org/2000/svg" width="1200" height="800" viewBox="0 0 1200 800">
<rect width="100%" height="100%" fill="white"/>
<style>text{font-family:Arial,Helvetica,sans-serif;fill:#222} .small{font-size:20px} .axis{font-size:22px} .title{font-size:28px;font-weight:bold} .tick{font-size:18px;fill:#555}</style>
<text x="600.0" y="40" text-anchor="middle" class="title">PV Generation vs Operating Revenue (Price = 0.1 RMB/kWh)</text>
<text x="600.0" y="68" text-anchor="middle" class="small">Linear fit: y = 0.6311x + 418.86 ; R^2 = 0.894 ; Samples = 42</text>
<line x1="110.0" y1="80" x2="110.0" y2="710" stroke="#e6e6e6" stroke-width="1"/>
<line x1="110.0" y1="710" x2="110.0" y2="718" stroke="#666" stroke-width="1.5"/>
<text x="110.0" y="742" text-anchor="middle" class="tick">169</text>
<line x1="285.0" y1="80" x2="285.0" y2="710" stroke="#e6e6e6" stroke-width="1"/>
<line x1="285.0" y1="710" x2="285.0" y2="718" stroke="#666" stroke-width="1.5"/>
<text x="285.0" y="742" text-anchor="middle" class="tick">673</text>
<line x1="460.0" y1="80" x2="460.0" y2="710" stroke="#e6e6e6" stroke-width="1"/>
<line x1="460.0" y1="710" x2="460.0" y2="718" stroke="#666" stroke-width="1.5"/>
<text x="460.0" y="742" text-anchor="middle" class="tick">1176</text>
<line x1="635.0" y1="80" x2="635.0" y2="710" stroke="#e6e6e6" stroke-width="1"/>
<line x1="635.0" y1="710" x2="635.0" y2="718" stroke="#666" stroke-width="1.5"/>
<text x="635.0" y="742" text-anchor="middle" class="tick">1679</text>
<line x1="810.0" y1="80" x2="810.0" y2="710" stroke="#e6e6e6" stroke-width="1"/>
<line x1="810.0" y1="710" x2="810.0" y2="718" stroke="#666" stroke-width="1.5"/>
<text x="810.0" y="742" text-anchor="middle" class="tick">2183</text>
<line x1="985.0" y1="80" x2="985.0" y2="710" stroke="#e6e6e6" stroke-width="1"/>
<line x1="985.0" y1="710" x2="985.0" y2="718" stroke="#666" stroke-width="1.5"/>
<text x="985.0" y="742" text-anchor="middle" class="tick">2686</text>
<line x1="1160.0" y1="80" x2="1160.0" y2="710" stroke="#e6e6e6" stroke-width="1"/>
<line x1="1160.0" y1="710" x2="1160.0" y2="718" stroke="#666" stroke-width="1.5"/>
<text x="1160.0" y="742" text-anchor="middle" class="tick">3190</text>
<line x1="110" y1="710.0" x2="1160" y2="710.0" stroke="#e6e6e6" stroke-width="1"/>
<line x1="102" y1="710.0" x2="110" y2="710.0" stroke="#666" stroke-width="1.5"/>
<text x="96" y="716.0" text-anchor="end" class="tick">369</text>
<line x1="110" y1="605.0" x2="1160" y2="605.0" stroke="#e6e6e6" stroke-width="1"/>
<line x1="102" y1="605.0" x2="110" y2="605.0" stroke="#666" stroke-width="1.5"/>
<text x="96" y="611.0" text-anchor="end" class="tick">716</text>
<line x1="110" y1="500.0" x2="1160" y2="500.0" stroke="#e6e6e6" stroke-width="1"/>
<line x1="102" y1="500.0" x2="110" y2="500.0" stroke="#666" stroke-width="1.5"/>
<text x="96" y="506.0" text-anchor="end" class="tick">1063</text>
<line x1="110" y1="395.0" x2="1160" y2="395.0" stroke="#e6e6e6" stroke-width="1"/>
<line x1="102" y1="395.0" x2="110" y2="395.0" stroke="#666" stroke-width="1.5"/>
<text x="96" y="401.0" text-anchor="end" class="tick">1410</text>
<line x1="110" y1="290.0" x2="1160" y2="290.0" stroke="#e6e6e6" stroke-width="1"/>
<line x1="102" y1="290.0" x2="110" y2="290.0" stroke="#666" stroke-width="1.5"/>
<text x="96" y="296.0" text-anchor="end" class="tick">1756</text>
<line x1="110" y1="185.0" x2="1160" y2="185.0" stroke="#e6e6e6" stroke-width="1"/>
<line x1="102" y1="185.0" x2="110" y2="185.0" stroke="#666" stroke-width="1.5"/>
<text x="96" y="191.0" text-anchor="end" class="tick">2103</text>
<line x1="110" y1="80.0" x2="1160" y2="80.0" stroke="#e6e6e6" stroke-width="1"/>
<line x1="102" y1="80.0" x2="110" y2="80.0" stroke="#666" stroke-width="1.5"/>
<text x="96" y="86.0" text-anchor="end" class="tick">2450</text>
<line x1="110" y1="80" x2="110" y2="710" stroke="#333" stroke-width="2"/>
<line x1="110" y1="710" x2="1160" y2="710" stroke="#333" stroke-width="2"/>
<text x="600.0" y="778" text-anchor="middle" class="axis">Daily PV Generation (kWh)</text>
<text x="30" y="400.0" text-anchor="middle" class="axis" transform="rotate(-90 30 400.0)">Operating Revenue (RMB)</text>
<line x1="110.0" y1="662.7" x2="1160.0" y2="85.4" stroke="#d62728" stroke-width="3"/>
<circle cx="773.0" cy="281.4" r="5.5" fill="#1f77b4" fill-opacity="0.78" stroke="white" stroke-width="1"/>
<circle cx="848.2" cy="233.4" r="5.5" fill="#1f77b4" fill-opacity="0.78" stroke="white" stroke-width="1"/>
<circle cx="548.3" cy="430.1" r="5.5" fill="#1f77b4" fill-opacity="0.78" stroke="white" stroke-width="1"/>
<circle cx="715.0" cy="374.4" r="5.5" fill="#1f77b4" fill-opacity="0.78" stroke="white" stroke-width="1"/>
<circle cx="771.6" cy="395.0" r="5.5" fill="#1f77b4" fill-opacity="0.78" stroke="white" stroke-width="1"/>
<circle cx="960.6" cy="240.0" r="5.5" fill="#1f77b4" fill-opacity="0.78" stroke="white" stroke-width="1"/>
<circle cx="341.1" cy="566.2" r="5.5" fill="#1f77b4" fill-opacity="0.78" stroke="white" stroke-width="1"/>
<circle cx="893.2" cy="240.7" r="5.5" fill="#1f77b4" fill-opacity="0.78" stroke="white" stroke-width="1"/>
<circle cx="279.2" cy="607.2" r="5.5" fill="#1f77b4" fill-opacity="0.78" stroke="white" stroke-width="1"/>
<circle cx="157.7" cy="666.6" r="5.5" fill="#1f77b4" fill-opacity="0.78" stroke="white" stroke-width="1"/>
<circle cx="325.1" cy="528.9" r="5.5" fill="#1f77b4" fill-opacity="0.78" stroke="white" stroke-width="1"/>
<circle cx="1112.3" cy="258.1" r="5.5" fill="#1f77b4" fill-opacity="0.78" stroke="white" stroke-width="1"/>
<circle cx="956.7" cy="200.6" r="5.5" fill="#1f77b4" fill-opacity="0.78" stroke="white" stroke-width="1"/>
<circle cx="578.5" cy="394.5" r="5.5" fill="#1f77b4" fill-opacity="0.78" stroke="white" stroke-width="1"/>
<circle cx="544.3" cy="423.9" r="5.5" fill="#1f77b4" fill-opacity="0.78" stroke="white" stroke-width="1"/>
<circle cx="329.0" cy="508.2" r="5.5" fill="#1f77b4" fill-opacity="0.78" stroke="white" stroke-width="1"/>
<circle cx="410.7" cy="474.2" r="5.5" fill="#1f77b4" fill-opacity="0.78" stroke="white" stroke-width="1"/>
<circle cx="703.9" cy="385.1" r="5.5" fill="#1f77b4" fill-opacity="0.78" stroke="white" stroke-width="1"/>
<circle cx="632.3" cy="400.2" r="5.5" fill="#1f77b4" fill-opacity="0.78" stroke="white" stroke-width="1"/>
<circle cx="317.4" cy="543.0" r="5.5" fill="#1f77b4" fill-opacity="0.78" stroke="white" stroke-width="1"/>
<circle cx="346.9" cy="520.5" r="5.5" fill="#1f77b4" fill-opacity="0.78" stroke="white" stroke-width="1"/>
<circle cx="659.5" cy="320.6" r="5.5" fill="#1f77b4" fill-opacity="0.78" stroke="white" stroke-width="1"/>
<circle cx="647.5" cy="386.0" r="5.5" fill="#1f77b4" fill-opacity="0.78" stroke="white" stroke-width="1"/>
<circle cx="765.8" cy="298.1" r="5.5" fill="#1f77b4" fill-opacity="0.78" stroke="white" stroke-width="1"/>
<circle cx="548.6" cy="430.7" r="5.5" fill="#1f77b4" fill-opacity="0.78" stroke="white" stroke-width="1"/>
<circle cx="724.4" cy="298.6" r="5.5" fill="#1f77b4" fill-opacity="0.78" stroke="white" stroke-width="1"/>
<circle cx="949.6" cy="215.2" r="5.5" fill="#1f77b4" fill-opacity="0.78" stroke="white" stroke-width="1"/>
<circle cx="791.0" cy="283.6" r="5.5" fill="#1f77b4" fill-opacity="0.78" stroke="white" stroke-width="1"/>
<circle cx="810.3" cy="246.7" r="5.5" fill="#1f77b4" fill-opacity="0.78" stroke="white" stroke-width="1"/>
<circle cx="220.8" cy="662.7" r="5.5" fill="#1f77b4" fill-opacity="0.78" stroke="white" stroke-width="1"/>
<circle cx="431.4" cy="485.9" r="5.5" fill="#1f77b4" fill-opacity="0.78" stroke="white" stroke-width="1"/>
<circle cx="468.8" cy="446.3" r="5.5" fill="#1f77b4" fill-opacity="0.78" stroke="white" stroke-width="1"/>
<circle cx="593.2" cy="393.8" r="5.5" fill="#1f77b4" fill-opacity="0.78" stroke="white" stroke-width="1"/>
<circle cx="817.2" cy="227.3" r="5.5" fill="#1f77b4" fill-opacity="0.78" stroke="white" stroke-width="1"/>
<circle cx="720.6" cy="370.7" r="5.5" fill="#1f77b4" fill-opacity="0.78" stroke="white" stroke-width="1"/>
<circle cx="619.4" cy="366.7" r="5.5" fill="#1f77b4" fill-opacity="0.78" stroke="white" stroke-width="1"/>
<circle cx="348.5" cy="521.4" r="5.5" fill="#1f77b4" fill-opacity="0.78" stroke="white" stroke-width="1"/>
<circle cx="757.0" cy="227.0" r="5.5" fill="#1f77b4" fill-opacity="0.78" stroke="white" stroke-width="1"/>
<circle cx="717.2" cy="209.0" r="5.5" fill="#1f77b4" fill-opacity="0.78" stroke="white" stroke-width="1"/>
<circle cx="918.6" cy="198.8" r="5.5" fill="#1f77b4" fill-opacity="0.78" stroke="white" stroke-width="1"/>
<circle cx="912.3" cy="162.0" r="5.5" fill="#1f77b4" fill-opacity="0.78" stroke="white" stroke-width="1"/>
<circle cx="1000.5" cy="123.4" r="5.5" fill="#1f77b4" fill-opacity="0.78" stroke="white" stroke-width="1"/>
<rect x="910" y="110" width="220" height="74" rx="8" ry="8" fill="white" stroke="#ccc"/>
<circle cx="928" cy="134" r="5.5" fill="#1f77b4" fill-opacity="0.78" stroke="white" stroke-width="1"/>
<text x="944" y="140" class="small">Daily samples</text>
<line x1="920" y1="162" x2="936" y2="162" stroke="#d62728" stroke-width="3"/>
<text x="944" y="168" class="small">Linear fit</text>
</svg>